<?xml version="1.0" standalone="no"?>
<svg xmlns:xlink="http://www.w3.org/1999/xlink" id="wave" style="transform:rotate(180deg); transition: 0.3s" viewBox="0 0 1440 230" version="1.1" xmlns="http://www.w3.org/2000/svg"><defs><linearGradient id="sw-gradient-0" x1="0" x2="0" y1="1" y2="0"><stop stop-color="rgba(215, 215, 214, 1)" offset="0%"/><stop stop-color="rgba(215, 215, 214, 1)" offset="100%"/></linearGradient></defs><path style="transform:translate(0, 0px); opacity:1" fill="url(#sw-gradient-0)" d="M0,23L60,30.7C120,38,240,54,360,84.3C480,115,600,161,720,149.5C840,138,960,69,1080,57.5C1200,46,1320,92,1440,95.8C1560,100,1680,61,1800,57.5C1920,54,2040,84,2160,107.3C2280,130,2400,146,2520,157.2C2640,169,2760,176,2880,157.2C3000,138,3120,92,3240,92C3360,92,3480,138,3600,157.2C3720,176,3840,169,3960,172.5C4080,176,4200,192,4320,199.3C4440,207,4560,207,4680,187.8C4800,169,4920,130,5040,111.2C5160,92,5280,92,5400,80.5C5520,69,5640,46,5760,65.2C5880,84,6000,146,6120,141.8C6240,138,6360,69,6480,46C6600,23,6720,46,6840,53.7C6960,61,7080,54,7200,72.8C7320,92,7440,138,7560,157.2C7680,176,7800,169,7920,168.7C8040,169,8160,176,8280,164.8C8400,153,8520,123,8580,107.3L8640,92L8640,230L8580,230C8520,230,8400,230,8280,230C8160,230,8040,230,7920,230C7800,230,7680,230,7560,230C7440,230,7320,230,7200,230C7080,230,6960,230,6840,230C6720,230,6600,230,6480,230C6360,230,6240,230,6120,230C6000,230,5880,230,5760,230C5640,230,5520,230,5400,230C5280,230,5160,230,5040,230C4920,230,4800,230,4680,230C4560,230,4440,230,4320,230C4200,230,4080,230,3960,230C3840,230,3720,230,3600,230C3480,230,3360,230,3240,230C3120,230,3000,230,2880,230C2760,230,2640,230,2520,230C2400,230,2280,230,2160,230C2040,230,1920,230,1800,230C1680,230,1560,230,1440,230C1320,230,1200,230,1080,230C960,230,840,230,720,230C600,230,480,230,360,230C240,230,120,230,60,230L0,230Z"/><defs><linearGradient id="sw-gradient-1" x1="0" x2="0" y1="1" y2="0"><stop stop-color="rgba(209, 209, 207, 1)" offset="0%"/><stop stop-color="rgba(209, 209, 207, 1)" offset="100%"/></linearGradient></defs><path style="transform:translate(0, 50px); opacity:0.9" fill="url(#sw-gradient-1)" d="M0,23L60,46C120,69,240,115,360,134.2C480,153,600,146,720,141.8C840,138,960,138,1080,122.7C1200,107,1320,77,1440,72.8C1560,69,1680,92,1800,99.7C1920,107,2040,100,2160,88.2C2280,77,2400,61,2520,80.5C2640,100,2760,153,2880,149.5C3000,146,3120,84,3240,53.7C3360,23,3480,23,3600,19.2C3720,15,3840,8,3960,19.2C4080,31,4200,61,4320,92C4440,123,4560,153,4680,153.3C4800,153,4920,123,5040,115C5160,107,5280,123,5400,122.7C5520,123,5640,107,5760,111.2C5880,115,6000,138,6120,153.3C6240,169,6360,176,6480,161C6600,146,6720,107,6840,88.2C6960,69,7080,69,7200,80.5C7320,92,7440,115,7560,138C7680,161,7800,184,7920,195.5C8040,207,8160,207,8280,203.2C8400,199,8520,192,8580,187.8L8640,184L8640,230L8580,230C8520,230,8400,230,8280,230C8160,230,8040,230,7920,230C7800,230,7680,230,7560,230C7440,230,7320,230,7200,230C7080,230,6960,230,6840,230C6720,230,6600,230,6480,230C6360,230,6240,230,6120,230C6000,230,5880,230,5760,230C5640,230,5520,230,5400,230C5280,230,5160,230,5040,230C4920,230,4800,230,4680,230C4560,230,4440,230,4320,230C4200,230,4080,230,3960,230C3840,230,3720,230,3600,230C3480,230,3360,230,3240,230C3120,230,3000,230,2880,230C2760,230,2640,230,2520,230C2400,230,2280,230,2160,230C2040,230,1920,230,1800,230C1680,230,1560,230,1440,230C1320,230,1200,230,1080,230C960,230,840,230,720,230C600,230,480,230,360,230C240,230,120,230,60,230L0,230Z"/></svg>